<svg xmlns="http://www.w3.org/2000/svg" xmlns:xlink="http://www.w3.org/1999/xlink" width="113" height="41" viewBox="0 0 113 41">
    <defs>
        <path id="a" d="M.135.63h28.21v18.162H.135z"/>
    </defs>
    <g fill="none" fill-rule="evenodd">
        <path fill="#FFF" d="M83 41h3V21h-3zM11.828 21v13.885L3.218 21H0v19h3.172V26.04L11.828 40H15V21zM51.87 37.047c-3.859 0-7-3.163-7-7.051 0-3.888 3.141-7.051 7-7.051 3.86 0 7 3.163 7 7.051 0 3.888-3.14 7.051-7 7.051m0-16.879c-5.38 0-9.755 4.41-9.755 9.828 0 5.419 4.376 9.827 9.756 9.827 5.379 0 9.755-4.408 9.755-9.827s-4.376-9.828-9.755-9.828M77.057 26.677c0 1.512-1.22 2.743-2.721 2.743H68.87v-6.435h5.466c1.5 0 2.721 1.23 2.721 2.742v.95zm-2.721-6.238h-8.708v18.742h3.242v-7.216h5.466c2.893 0 5.247-2.372 5.247-5.288v-.95c0-2.915-2.354-5.288-5.247-5.288zM98.133 27.919c-2.77-.777-3.528-1.41-3.528-2.944 0-1.597.966-2.477 2.72-2.477 1.873 0 2.895.882 3.215 2.776l.033.192h2.903l-.023-.252c-.226-2.616-1.933-5.411-6.046-5.411-3.504 0-5.768 2.141-5.768 5.454 0 2.895 1.57 4.519 5.418 5.604 3.225.905 3.816 1.892 3.816 3.51 0 1.272-.55 2.788-3.162 2.788-2.133 0-3.372-1.043-3.788-3.19l-.036-.186H90.98l.03.257c.424 3.693 2.806 5.81 6.535 5.81 3.882 0 6.293-2.218 6.293-5.79 0-2.351-.692-4.724-5.705-6.141M68.82 17.823l27.146-12.04L84.773.63z"/>
        <g transform="translate(84.638)">
            <mask id="b" fill="#fff">
                <use xlink:href="#a"/>
            </mask>
            <path fill="#FFF" d="M28.345 18.792L23.18 7.262.135.629z" mask="url(#b)"/>
        </g>
        <path fill="#FFF" d="M28.984 23.014c3.25 0 6.084 2.294 6.795 5.474H22.19c.711-3.18 3.547-5.474 6.795-5.474m0-2.777c-5.36 0-9.721 4.393-9.721 9.794 0 5.399 4.361 9.792 9.721 9.792 4.269 0 7.992-2.769 9.267-6.89l.046-.149h-2.931l-.03.069c-1.12 2.548-3.613 4.194-6.352 4.194-3.37 0-6.296-2.503-6.858-5.843h16.5l.013-.102c.044-.391.066-.742.066-1.071 0-5.401-4.36-9.794-9.72-9.794"/>
    </g>
</svg>
