<svg xmlns="http://www.w3.org/2000/svg" xmlns:xlink="http://www.w3.org/1999/xlink" width="27" height="26" viewBox="0 0 27 26">
    <defs>
        <path id="a" d="M.127 12.452c0 6.791 5.506 12.296 12.297 12.296s12.297-5.505 12.297-12.296C24.72 5.66 19.215.155 12.424.155S.127 5.66.127 12.452z"/>
    </defs>
    <g fill="none" fill-rule="evenodd">
        <path fill="#FFF" stroke="#FFF" d="M26 12.932c0 6.59-5.597 11.932-12.5 11.932S1 19.52 1 12.932C1 6.342 6.597 1 13.5 1S26 6.342 26 12.932z" opacity=".635"/>
        <g transform="translate(1 1)">
            <mask id="b" fill="#fff">
                <use xlink:href="#a"/>
            </mask>
            <path fill="#FFF" d="M16.015 13.906a4.71 4.71 0 0 0 1.245-3.19 4.732 4.732 0 1 0-9.464 0 4.71 4.71 0 0 0 1.245 3.19 8.306 8.306 0 0 0 3.487 15.845 8.306 8.306 0 0 0 3.487-15.845z" mask="url(#b)"/>
        </g>
    </g>
</svg>
